<?xml version="1.0" ?><!DOCTYPE svg  PUBLIC '-//W3C//DTD SVG 1.1//EN'  'http://www.w3.org/Graphics/SVG/1.1/DTD/svg11.dtd'><svg height="100%" style="fill-rule:evenodd;clip-rule:evenodd;stroke-linejoin:round;stroke-miterlimit:2;" version="1.1" viewBox="0 0 134 134" width="100%" xml:space="preserve" xmlns="http://www.w3.org/2000/svg" xmlns:serif="http://www.serif.com/" xmlns:xlink="http://www.w3.org/1999/xlink"><path d="M104.167,41.608c-0,-9.973 -3.969,-19.535 -11.03,-26.577c-7.062,-7.042 -16.635,-10.984 -26.608,-10.956c-0.002,-0 -0.005,-0 -0.008,-0c-20.647,0.057 -37.354,16.811 -37.354,37.458c-0,-0 -0,12.633 -0,12.633c-0,2.903 0.014,5.689 -0.395,8.217c-0.463,2.854 -1.51,5.335 -4.353,6.959c-3.349,1.915 -6.967,3.982 -10.084,5.763c-6.288,3.593 -10.168,10.28 -10.168,17.522c-0,12.279 -0,32.373 -0,32.373c-0,2.301 1.865,4.167 4.166,4.167l116.667,-0c2.301,-0 4.167,-1.866 4.167,-4.167l-0,-32.373c-0,-7.242 -3.881,-13.929 -10.168,-17.522c-3.118,-1.781 -6.735,-3.848 -10.085,-5.763c-2.851,-1.629 -3.887,-4.171 -4.351,-7.07c-0.41,-2.565 -0.396,-5.384 -0.396,-8.29c-0,-0 -0,-12.374 -0,-12.374Zm-33.334,79.225l50,0l0,-28.206c0,-4.252 -2.278,-8.177 -5.969,-10.287c-3.117,-1.781 -6.735,-3.848 -10.084,-5.762c-8.204,-4.688 -8.947,-13.148 -8.947,-22.596l0,-12.374c0,-7.759 -3.087,-15.198 -8.581,-20.676c-5.493,-5.479 -12.941,-8.546 -20.7,-8.524c-0.002,-0 -0.005,-0 -0.008,-0c-16.053,0.044 -29.044,13.071 -29.044,29.125c0,-0 0,12.634 -0,12.634c-0,9.463 -0.73,17.716 -8.946,22.411c-3.35,1.914 -6.967,3.981 -10.085,5.762c-3.691,2.11 -5.969,6.035 -5.969,10.287c0,-0 0,28.206 -0,28.206l50,0l-0,-12.5c-0,-2.299 1.867,-4.166 4.167,-4.166c2.299,-0 4.166,1.867 4.166,4.166l0,12.5Zm-4.166,-45.833l0.537,-0.007c11.257,-0.285 20.296,-9.5 20.296,-20.826l0,-16.667c0,-2.301 -1.865,-4.167 -4.167,-4.167l-33.333,0c-2.301,0 -4.167,1.866 -4.167,4.167l0,16.667c0,11.506 9.328,20.833 20.834,20.833Zm-0,-8.333c-6.904,-0 -12.5,-5.597 -12.5,-12.5l-0,-12.5l25,-0l-0,12.5c-0,6.903 -5.597,12.5 -12.5,12.5Z"/></svg>