<?xml version="1.0" ?><!DOCTYPE svg  PUBLIC '-//W3C//DTD SVG 1.1//EN'  'http://www.w3.org/Graphics/SVG/1.1/DTD/svg11.dtd'><svg height="100%" style="fill-rule:evenodd;clip-rule:evenodd;stroke-linejoin:round;stroke-miterlimit:2;" version="1.1" viewBox="0 0 134 134" width="100%" xml:space="preserve" xmlns="http://www.w3.org/2000/svg" xmlns:serif="http://www.serif.com/" xmlns:xlink="http://www.w3.org/1999/xlink"><path d="M108.333,116.667l0,-100c0,-3.316 -1.317,-6.495 -3.661,-8.839c-2.344,-2.344 -5.524,-3.661 -8.839,-3.661c-14.429,-0 -43.903,-0 -58.333,-0c-3.315,-0 -6.495,1.317 -8.839,3.661c-2.344,2.344 -3.661,5.523 -3.661,8.839c0,21.475 -0,78.524 0,100c-0,3.315 1.317,6.494 3.661,8.839c2.344,2.344 5.524,3.661 8.839,3.661c14.43,-0 43.904,-0 58.333,-0c3.315,-0 6.495,-1.317 8.839,-3.661c2.344,-2.345 3.661,-5.524 3.661,-8.839Zm-8.333,-0c0,1.105 -0.439,2.165 -1.22,2.946c-0.782,0.781 -1.842,1.22 -2.947,1.22l-58.333,0c-1.105,0 -2.165,-0.439 -2.946,-1.22c-0.782,-0.781 -1.221,-1.841 -1.221,-2.946l66.667,-0Zm-66.667,-8.334l0,-83.333l66.667,-0l-0,83.333l-66.667,0Zm29.167,-62.245c-9.498,1.947 -16.667,10.418 -16.667,20.579c0,-0 0,16.666 0,16.666c0,2.302 1.866,4.167 4.167,4.167l33.333,0c2.302,0 4.167,-1.865 4.167,-4.167l-0,-16.666c0,-10.161 -7.169,-18.632 -16.667,-20.579l0,-3.588c0,-2.3 -1.867,-4.167 -4.166,-4.167c-2.3,0 -4.167,1.867 -4.167,4.167l0,3.588Zm16.667,24.745l-0,8.334c-0,-0 -25,-0 -25,-0l-0,-8.334l25,0Zm-0.694,-8.333l-23.613,0c1.701,-4.942 6.34,-8.5 11.807,-8.5c5.466,0 10.105,3.558 11.806,8.5Zm21.527,-45.833l-66.667,-0c0,-1.105 0.439,-2.165 1.221,-2.947c0.781,-0.781 1.841,-1.22 2.946,-1.22l58.333,-0c1.105,-0 2.165,0.439 2.947,1.22c0.781,0.782 1.22,1.842 1.22,2.947Z"/></svg>