<?xml version="1.0" ?><!DOCTYPE svg  PUBLIC '-//W3C//DTD SVG 1.1//EN'  'http://www.w3.org/Graphics/SVG/1.1/DTD/svg11.dtd'><svg height="100%" style="fill-rule:evenodd;clip-rule:evenodd;stroke-linejoin:round;stroke-miterlimit:2;" version="1.1" viewBox="0 0 134 134" width="100%" xml:space="preserve" xmlns="http://www.w3.org/2000/svg" xmlns:serif="http://www.serif.com/" xmlns:xlink="http://www.w3.org/1999/xlink"><path d="M45.42,10.253c0.837,-1.613 0.533,-3.581 -0.752,-4.866c-1.284,-1.285 -3.253,-1.589 -4.865,-0.752c-21.167,10.986 -35.636,33.106 -35.636,58.577c-0,36.402 29.553,65.955 65.954,65.955c25.472,-0 47.591,-14.47 58.577,-35.636c0.837,-1.613 0.533,-3.581 -0.752,-4.866c-1.284,-1.285 -3.253,-1.589 -4.866,-0.752c-7.927,4.115 -16.934,6.44 -26.479,6.44c-31.802,-0 -57.621,-25.819 -57.621,-57.621c0,-9.545 2.325,-18.551 6.44,-26.479Zm-12.396,8.885c-1.549,5.601 -2.377,11.502 -2.377,17.594c0,36.401 29.553,65.954 65.954,65.954c6.092,0 11.991,-0.828 17.592,-2.376c-10.567,12.545 -26.395,20.523 -44.072,20.523c-31.802,0 -57.621,-25.819 -57.621,-57.621c0,-17.678 7.979,-33.507 20.53,-44.081l-0.006,0.007Zm45.927,-11.515c-1.341,-1.208 -3.308,-1.414 -4.871,-0.512c-1.563,0.903 -2.368,2.709 -1.992,4.475l4.589,21.592c0,-0 -19.117,11.037 -19.117,11.037c-1.563,0.902 -2.367,2.709 -1.992,4.475c0.375,1.765 1.845,3.088 3.64,3.277l21.953,2.308c0,-0.001 4.59,21.591 4.59,21.591c0.375,1.766 1.845,3.089 3.64,3.278c1.795,0.189 3.508,-0.8 4.242,-2.449l8.978,-20.166c0,-0 21.953,2.307 21.953,2.307c1.796,0.189 3.508,-0.8 4.242,-2.449c0.735,-1.649 0.324,-3.583 -1.018,-4.791l-16.404,-14.77c-0,-0 8.978,-20.166 8.978,-20.166c0.734,-1.649 0.323,-3.583 -1.018,-4.791c-1.342,-1.208 -3.308,-1.415 -4.872,-0.512l-19.116,11.037c-0,-0 -16.405,-14.771 -16.405,-14.771Zm3.954,14.774l9.124,8.215c1.342,1.208 3.308,1.415 4.872,0.512l10.632,-6.139c0,0 -4.993,11.217 -4.993,11.217c-0.735,1.649 -0.323,3.583 1.018,4.791l9.124,8.215c0,0 -12.21,-1.283 -12.21,-1.283c-1.796,-0.189 -3.508,0.8 -4.242,2.449l-4.994,11.216c-0,0 -2.553,-12.009 -2.553,-12.009c-0.375,-1.766 -1.845,-3.089 -3.64,-3.278l-12.21,-1.283c-0,-0 10.632,-6.139 10.632,-6.139c1.564,-0.903 2.368,-2.709 1.993,-4.475l-2.553,-12.009Z"/></svg>