<?xml version="1.0" ?><!DOCTYPE svg  PUBLIC '-//W3C//DTD SVG 1.1//EN'  'http://www.w3.org/Graphics/SVG/1.1/DTD/svg11.dtd'><svg height="100%" style="fill-rule:evenodd;clip-rule:evenodd;stroke-linejoin:round;stroke-miterlimit:2;" version="1.1" viewBox="0 0 134 134" width="100%" xml:space="preserve" xmlns="http://www.w3.org/2000/svg" xmlns:serif="http://www.serif.com/" xmlns:xlink="http://www.w3.org/1999/xlink"><path d="M66.667,4.167c-34.495,-0 -62.5,28.005 -62.5,62.5c-0,34.494 28.005,62.5 62.5,62.5c34.494,-0 62.5,-28.006 62.5,-62.5c-0,-34.495 -28.006,-62.5 -62.5,-62.5Zm40.354,26.382l-17.096,17.096c4.641,2.295 8.173,6.498 9.568,11.582l4.674,-0c2.301,-0 4.166,1.865 4.166,4.166c0,12.565 -3.945,20.784 -8.54,26.169c-7.217,8.457 -16.287,10.069 -16.287,10.069c-0.253,0.048 -0.51,0.072 -0.768,0.072l-32.143,-0c-0.257,-0 -0.514,-0.024 -0.768,-0.072c0,0 -3.801,-0.675 -8.441,-3.447l-10.837,10.837c9.586,8.587 22.246,13.812 36.118,13.812c29.895,0 54.166,-24.271 54.166,-54.166c0,-13.872 -5.225,-26.532 -13.812,-36.118Zm-6.02,-5.766c-9.346,-7.673 -21.306,-12.283 -34.334,-12.283c-29.896,-0 -54.167,24.271 -54.167,54.167c0,13.028 4.61,24.988 12.283,34.334l10.032,-10.032c-0.43,-0.447 -0.856,-0.915 -1.275,-1.407c-4.595,-5.385 -8.54,-13.604 -8.54,-26.169c0,-2.301 1.865,-4.166 4.167,-4.166l4.673,-0c1.948,-7.098 8.061,-12.48 15.541,-13.346c2.506,-7.131 9.302,-12.25 17.286,-12.25c6.896,-0 12.906,3.82 16.03,9.456l18.304,-18.304Zm-30.992,42.777l-22.452,22.453c1.652,0.814 2.95,1.207 3.515,1.356l15.595,0c-0,0 15.594,0 15.608,-0.003c2.212,-0.587 15.776,-4.942 17.536,-23.806l-29.802,-0Zm-11.785,-0c-9.819,-0 -24.702,-0 -24.702,-0c0.778,8.341 3.865,13.846 7.259,17.443l17.443,-17.443Zm2.01,-8.333c-1.705,-3.063 -4.977,-5.135 -8.728,-5.135c-3.751,0 -7.022,2.072 -8.728,5.135l17.456,-0Zm23.126,-5.018l-5.017,5.018l12.212,-0c-1.468,-2.637 -4.098,-4.54 -7.195,-5.018Zm-8.047,-7.256c-1.728,-2.982 -4.955,-4.989 -8.646,-4.989c-3.692,-0 -6.919,2.007 -8.646,4.989c3.536,1.349 6.549,3.763 8.646,6.848c2.096,-3.085 5.109,-5.499 8.646,-6.848Z"/></svg>