<?xml version="1.0" ?><!DOCTYPE svg  PUBLIC '-//W3C//DTD SVG 1.1//EN'  'http://www.w3.org/Graphics/SVG/1.1/DTD/svg11.dtd'><svg height="100%" style="fill-rule:evenodd;clip-rule:evenodd;stroke-linejoin:round;stroke-miterlimit:2;" version="1.1" viewBox="0 0 134 134" width="100%" xml:space="preserve" xmlns="http://www.w3.org/2000/svg" xmlns:serif="http://www.serif.com/" xmlns:xlink="http://www.w3.org/1999/xlink"><path d="M4.387,69.14c16.584,23.33 36.489,43.333 59.875,59.855c1.504,1.063 3.473,0.988 4.878,-0.049c23.33,-16.584 43.333,-36.489 59.855,-59.875c1.063,-1.504 0.988,-3.472 -0.049,-4.878c-16.569,-23.308 -36.453,-43.296 -59.814,-59.812c-1.409,-1.033 -3.377,-1.103 -4.878,-0.037c-23.354,16.591 -43.378,36.511 -59.916,59.918c-1.063,1.504 -0.987,3.473 0.049,4.878Zm72.704,43.306l-10.424,-10.424l-10.44,10.439c3.393,2.753 6.871,5.421 10.434,8.003c3.558,-2.59 7.035,-5.262 10.43,-8.018Zm-27.267,-5.367l10.95,-10.95l-8.839,-8.838l-11.328,11.328c2.995,2.897 6.066,5.717 9.217,8.46Zm42.899,-8.464l-11.325,-11.324l-8.839,8.838l10.937,10.937c3.151,-2.74 6.227,-5.556 9.227,-8.451Zm14.356,-15.106l-10.95,-10.95l-8.838,8.839l11.328,11.329c2.897,-2.995 5.717,-6.067 8.46,-9.218Zm-72.361,9.214l11.325,-11.325l-8.839,-8.839l-10.937,10.937c2.741,3.151 5.557,6.227 8.451,9.227Zm23.11,-11.325l8.839,8.839l8.839,-8.839l-8.839,-8.839l-8.839,8.839Zm54.618,-25.156l-10.424,10.425l10.439,10.439c2.753,-3.393 5.421,-6.871 8.003,-10.433c-2.59,-3.559 -5.262,-7.035 -8.018,-10.431Zm-91.574,-0.015c-2.753,3.393 -5.42,6.871 -8.003,10.434c2.591,3.558 5.263,7.035 8.018,10.43l10.424,-10.424l-10.439,-10.44Zm22.224,10.44l8.839,8.839l8.839,-8.839l-8.839,-8.839l-8.839,8.839Zm29.463,-0l8.839,8.839l8.839,-8.839l-8.839,-8.839l-8.839,8.839Zm-37.845,-26.06c-2.896,2.995 -5.716,6.066 -8.46,9.217l10.95,10.95l8.839,-8.839l-11.329,-11.328Zm63.901,0.004l-11.324,11.324l8.838,8.839l10.937,-10.936c-2.74,-3.152 -5.556,-6.227 -8.451,-9.227Zm-40.787,11.324l8.839,8.839l8.839,-8.839l-8.839,-8.839l-8.839,8.839Zm-7.99,-25.668c-3.152,2.741 -6.227,5.557 -9.227,8.451l11.324,11.325l8.839,-8.839l-10.936,-10.937Zm33.671,-0.013l-10.95,10.95l8.839,8.839l11.329,-11.329c-2.995,-2.896 -6.067,-5.716 -9.218,-8.46Zm-16.836,-13.385c-3.559,2.591 -7.035,5.263 -10.431,8.018l10.425,10.424l10.439,-10.439c-3.393,-2.753 -6.871,-5.42 -10.433,-8.003Z"/></svg>