<?xml version="1.0" ?><!DOCTYPE svg  PUBLIC '-//W3C//DTD SVG 1.1//EN'  'http://www.w3.org/Graphics/SVG/1.1/DTD/svg11.dtd'><svg height="100%" style="fill-rule:evenodd;clip-rule:evenodd;stroke-linejoin:round;stroke-miterlimit:2;" version="1.1" viewBox="0 0 134 134" width="100%" xml:space="preserve" xmlns="http://www.w3.org/2000/svg" xmlns:serif="http://www.serif.com/" xmlns:xlink="http://www.w3.org/1999/xlink"><path d="M34.798,25.023c-2.512,0.166 -4.888,1.237 -6.679,3.028c-1.953,1.953 -3.051,4.603 -3.051,7.366c0,-0 0,2.301 0,-0c0,2.762 1.098,5.412 3.051,7.365c0.958,0.958 2.083,1.71 3.307,2.228l-12.726,28.28c0,0 -1.912,4.25 -0.001,0.003c-5.516,12.259 -4.44,26.479 2.859,37.768c7.3,11.289 19.825,18.106 33.268,18.106c7.819,-0 15.862,-0 23.681,-0c13.443,-0 25.969,-6.817 33.268,-18.106c7.299,-11.289 8.376,-25.509 2.859,-37.768l-12.705,-28.235c1.268,-0.519 2.434,-1.288 3.422,-2.276c1.953,-1.953 3.051,-4.603 3.051,-7.365c-0,-0 -0,-0 -0,-0c-0,-2.763 -1.098,-5.413 -3.051,-7.366c-1.823,-1.823 -4.252,-2.9 -6.813,-3.036c1.943,-5.144 2.459,-10.912 1.408,-17.353c-0.185,-1.131 -0.828,-2.136 -1.777,-2.779c-0.949,-0.643 -2.121,-0.866 -3.24,-0.617c-6.345,1.41 -11.47,3.691 -15.349,6.785c-2.76,-2.742 -6.572,-5.015 -11.609,-6.675c-0.72,-0.237 -1.491,-0.274 -2.23,-0.105c-4.949,1.128 -8.825,3.376 -11.842,6.521c-4.393,-3.893 -9.823,-5.832 -15.88,-6.593c-1.101,-0.138 -2.211,0.168 -3.085,0.852c-0.874,0.683 -1.44,1.687 -1.571,2.789c-0.836,7.008 -0.207,12.61 1.435,17.183Zm5.396,20.81l52.945,0l13.895,30.877c-0,-0 1.236,2.748 0.001,0.002c4.356,9.681 3.506,20.91 -2.258,29.824c-5.764,8.914 -15.655,14.297 -26.27,14.297c-7.819,0 -15.862,0 -23.681,0c-10.615,0 -20.506,-5.383 -26.27,-14.297c-5.764,-8.914 -6.614,-20.143 -2.257,-29.824c-1.236,2.746 0.001,-0.002 0.001,-0.002l13.894,-30.877Zm59.874,-10.416c0,0.552 -0.219,1.082 -0.61,1.473c-0.39,0.391 -0.92,0.61 -1.473,0.61l-62.5,0c-0.552,0 -1.082,-0.219 -1.473,-0.61c-0.391,-0.391 -0.61,-0.921 -0.61,-1.473c-0,2.301 -0,-0 -0,-0c-0,-0.553 0.219,-1.083 0.61,-1.473c0.391,-0.391 0.921,-0.611 1.473,-0.611l62.5,0c0.553,0 1.083,0.22 1.473,0.611c0.391,0.39 0.61,0.92 0.61,1.473Zm-10.703,-10.417c1.883,-3.359 2.811,-7.127 2.772,-11.32c-4.191,1.441 -7.483,3.461 -9.748,6.223c-0.867,1.058 -2.198,1.623 -3.561,1.512c-1.363,-0.111 -2.585,-0.884 -3.269,-2.068c-1.665,-2.882 -4.684,-5.051 -9.073,-6.663c-3.96,1.167 -6.786,3.517 -8.765,6.752c-0.726,1.187 -1.995,1.933 -3.385,1.989c-1.39,0.057 -2.716,-0.584 -3.535,-1.707c-2.482,-3.402 -5.748,-5.326 -9.471,-6.389c-0.057,4.823 0.871,8.621 2.596,11.671l45.439,0Z"/></svg>