<?xml version="1.0" ?><!DOCTYPE svg  PUBLIC '-//W3C//DTD SVG 1.1//EN'  'http://www.w3.org/Graphics/SVG/1.1/DTD/svg11.dtd'><svg height="100%" style="fill-rule:evenodd;clip-rule:evenodd;stroke-linejoin:round;stroke-miterlimit:2;" version="1.1" viewBox="0 0 134 134" width="100%" xml:space="preserve" xmlns="http://www.w3.org/2000/svg" xmlns:serif="http://www.serif.com/" xmlns:xlink="http://www.w3.org/1999/xlink"><path d="M33.333,16.667c-15.909,-0 -29.166,14.773 -29.166,33.333c-0,17.861 12.277,32.214 27.378,33.271l12.562,12.562l-13.72,13.721c-1.626,1.626 -1.626,4.266 0,5.892c1.626,1.626 4.267,1.626 5.893,0l13.72,-13.72l5.387,5.387c1.626,1.626 4.267,1.626 5.893,-0c1.626,-1.626 1.626,-4.267 -0,-5.893l-5.387,-5.387l10.774,-10.774l10.774,10.774l-5.387,5.387c-1.626,1.626 -1.626,4.267 -0,5.893c1.626,1.626 4.266,1.626 5.892,-0l5.387,-5.387l13.721,13.72c1.626,1.626 4.266,1.626 5.892,0c1.626,-1.626 1.626,-4.266 0,-5.892l-13.72,-13.721l12.563,-12.562c15.101,-1.057 27.378,-15.41 27.378,-33.271c-0,-18.56 -13.258,-33.333 -29.167,-33.333l-66.667,-0Zm10.06,66.666l6.607,6.608l6.607,-6.608l-13.214,0Zm33.333,0l6.607,6.608l6.608,-6.608l-13.215,0Zm-24.129,-58.333c1.263,1.271 2.431,2.664 3.488,4.167l32.551,-0c2.3,-0 4.167,1.867 4.167,4.166c0,2.3 -1.867,4.167 -4.167,4.167l-28.26,0c0.932,2.624 1.58,5.417 1.898,8.333l46.059,0c2.3,0 4.167,1.867 4.167,4.167c-0,2.3 -1.867,4.167 -4.167,4.167l-46.059,-0c-0.318,2.915 -0.966,5.709 -1.898,8.333l28.26,-0c2.3,-0 4.167,1.867 4.167,4.167c0,2.299 -1.867,4.166 -4.167,4.166l-32.551,0c-1.057,1.502 -2.225,2.896 -3.488,4.167l47.403,-0c11.689,-0 20.833,-11.363 20.833,-25c0,-13.637 -9.144,-25 -20.833,-25l-47.403,-0Zm-19.264,-0c11.689,0 20.834,11.363 20.834,25c-0,13.637 -9.145,25 -20.834,25c-11.688,-0 -20.833,-11.363 -20.833,-25c0,-13.637 9.145,-25 20.833,-25Z"/></svg>