<?xml version="1.0" ?><!DOCTYPE svg  PUBLIC '-//W3C//DTD SVG 1.1//EN'  'http://www.w3.org/Graphics/SVG/1.1/DTD/svg11.dtd'><svg height="100%" style="fill-rule:evenodd;clip-rule:evenodd;stroke-linejoin:round;stroke-miterlimit:2;" version="1.1" viewBox="0 0 134 134" width="100%" xml:space="preserve" xmlns="http://www.w3.org/2000/svg" xmlns:serif="http://www.serif.com/" xmlns:xlink="http://www.w3.org/1999/xlink"><path d="M29.167,8.333l-0,116.667c-0,2.3 1.867,4.167 4.166,4.167c2.3,-0 4.167,-1.867 4.167,-4.167l-0,-8.333l8.333,-0l0,8.333c0,2.3 1.867,4.167 4.167,4.167c2.3,-0 4.167,-1.867 4.167,-4.167l-0,-8.333l8.333,-0l0,8.333c-0,2.3 1.867,4.167 4.167,4.167c2.299,-0 4.166,-1.867 4.166,-4.167l0,-8.333l8.334,-0l-0,8.333c-0,2.3 1.867,4.167 4.166,4.167c2.3,-0 4.167,-1.867 4.167,-4.167l0,-8.333l8.333,-0l0,8.333c0,2.3 1.867,4.167 4.167,4.167c2.3,-0 4.167,-1.867 4.167,-4.167l-0,-116.667c-0,-2.299 -1.867,-4.166 -4.167,-4.166c-2.3,-0 -4.167,1.867 -4.167,4.166l0,8.334l-8.333,-0l0,-8.334c0,-2.299 -1.867,-4.166 -4.167,-4.166c-2.299,-0 -4.166,1.867 -4.166,4.166l-0,8.334l-8.334,-0l0,-8.334c0,-2.299 -1.867,-4.166 -4.166,-4.166c-2.3,-0 -4.167,1.867 -4.167,4.166l0,8.334l-8.333,-0l-0,-8.334c-0,-2.299 -1.867,-4.166 -4.167,-4.166c-2.3,-0 -4.167,1.867 -4.167,4.166l0,8.334l-8.333,-0l-0,-8.334c-0,-2.299 -1.867,-4.166 -4.167,-4.166c-2.299,-0 -4.166,1.867 -4.166,4.166Zm8.333,100l58.333,0l0,-37.5l-8.333,0l0,25c0,2.302 -1.865,4.167 -4.167,4.167l-33.333,0c-2.301,0 -4.167,-1.865 -4.167,-4.167l0,-25l-8.333,0l0,37.5Zm41.667,-25l-0,8.334c-0,-0 -25,-0 -25,-0l-0,-8.334l25,0Zm-0,-8.333l-25,0l-0,-20.833c-0,-6.904 5.596,-12.5 12.5,-12.5c6.903,-0 12.5,5.596 12.5,12.499l-0,20.834Zm16.666,-50l-58.333,-0l0,37.5l8.333,-0l0,-8.333c0,-11.506 9.328,-20.834 20.834,-20.834c11.506,0 20.833,9.328 20.833,20.834l-0,8.333l8.333,-0l0,-37.5Z"/></svg>