<?xml version="1.0" ?><!DOCTYPE svg  PUBLIC '-//W3C//DTD SVG 1.1//EN'  'http://www.w3.org/Graphics/SVG/1.1/DTD/svg11.dtd'><svg height="100%" style="fill-rule:evenodd;clip-rule:evenodd;stroke-linejoin:round;stroke-miterlimit:2;" version="1.1" viewBox="0 0 134 134" width="100%" xml:space="preserve" xmlns="http://www.w3.org/2000/svg" xmlns:serif="http://www.serif.com/" xmlns:xlink="http://www.w3.org/1999/xlink"><path d="M116.667,116.667l-0,-100c-0,-3.316 -1.317,-6.495 -3.662,-8.839c-2.344,-2.344 -5.523,-3.661 -8.838,-3.661c-17.432,-0 -57.569,-0 -75,-0c-3.316,-0 -6.495,1.317 -8.839,3.661c-2.344,2.344 -3.661,5.523 -3.661,8.839c-0,21.475 -0,78.524 -0,100c-0,3.315 1.317,6.494 3.661,8.839c2.344,2.344 5.523,3.661 8.839,3.661c17.431,-0 57.568,-0 75,-0c3.315,-0 6.494,-1.317 8.838,-3.661c2.345,-2.345 3.662,-5.524 3.662,-8.839Zm-8.334,-87.5l-83.333,-0l-0,75l41.667,-0c2.299,-0 4.166,1.867 4.166,4.166c0,2.3 -1.867,4.167 -4.166,4.167l-41.667,0l-0,4.167c-0,1.105 0.439,2.165 1.22,2.946c0.782,0.781 1.842,1.22 2.947,1.22l62.5,0l-0,-12.5c-0,-2.299 1.867,-4.166 4.166,-4.166c2.3,-0 4.167,1.867 4.167,4.166l0,12.5c-0,0 4.167,0 4.167,0c1.105,0 2.165,-0.439 2.946,-1.22c0.781,-0.781 1.22,-1.841 1.22,-2.946l0,-87.5Zm-19.97,38.332c1.627,-1.627 1.627,-4.265 -0,-5.893l-18.719,-18.719c-1.628,-1.627 -4.266,-1.627 -5.893,0l-18.719,18.719c-1.627,1.628 -1.627,4.266 -0,5.893l18.719,18.719c1.627,1.627 4.265,1.627 5.893,0l18.719,-18.719Zm-8.839,-2.946l-12.827,12.826c0,0 -12.826,-12.826 -12.826,-12.826c-0,-0 12.826,-12.827 12.826,-12.827l12.827,12.827Zm28.809,-43.72l-83.333,0l-0,-4.166c-0,-1.105 0.439,-2.165 1.22,-2.947c0.782,-0.781 1.842,-1.22 2.947,-1.22l75,0c1.105,-0 2.165,0.439 2.946,1.22c0.781,0.782 1.22,1.842 1.22,2.947l0,4.166Z"/></svg>