<?xml version="1.0" ?><!DOCTYPE svg  PUBLIC '-//W3C//DTD SVG 1.1//EN'  'http://www.w3.org/Graphics/SVG/1.1/DTD/svg11.dtd'><svg height="100%" style="fill-rule:evenodd;clip-rule:evenodd;stroke-linejoin:round;stroke-miterlimit:2;" version="1.1" viewBox="0 0 134 134" width="100%" xml:space="preserve" xmlns="http://www.w3.org/2000/svg" xmlns:serif="http://www.serif.com/" xmlns:xlink="http://www.w3.org/1999/xlink"><path d="M45.833,29.167l-8.333,-0l-0,-20.834c-0,-2.299 -1.867,-4.166 -4.167,-4.166c-2.299,-0 -4.166,1.867 -4.166,4.166l-0,20.834l-8.334,-0l0,-20.834c0,-2.299 -1.867,-4.166 -4.166,-4.166c-2.3,-0 -4.167,1.867 -4.167,4.166l0,33.334c-0,3.315 1.317,6.494 3.661,8.838c2.344,2.345 5.524,3.662 8.839,3.662l4.167,-0l-0,21.548c-1.742,0.616 -3.342,1.615 -4.673,2.946c-2.344,2.344 -3.661,5.524 -3.661,8.839c0,8.275 0,20.891 0,29.167c0,3.315 1.317,6.494 3.661,8.838c2.345,2.345 5.524,3.662 8.839,3.662c3.316,-0 6.495,-1.317 8.839,-3.662c2.344,-2.344 3.661,-5.523 3.661,-8.838l0,-29.167c0,-3.315 -1.317,-6.495 -3.661,-8.839c-1.331,-1.331 -2.931,-2.33 -4.672,-2.946l0,-21.548l4.167,-0c3.315,-0 6.494,-1.317 8.839,-3.662c2.344,-2.344 3.661,-5.523 3.661,-8.838l-0,-33.334c-0,-2.299 -1.867,-4.166 -4.167,-4.166c-2.3,-0 -4.167,1.867 -4.167,4.166l0,20.834Zm-12.5,91.666c-1.105,0 -2.165,-0.439 -2.946,-1.22c-0.781,-0.781 -1.22,-1.841 -1.22,-2.946l-0,-29.167c-0,-1.105 0.439,-2.165 1.22,-2.946c0.781,-0.782 1.841,-1.221 2.946,-1.221c1.105,0 2.165,0.439 2.947,1.221c0.781,0.781 1.22,1.841 1.22,2.946l-0,29.167c0,1.105 -0.439,2.165 -1.22,2.946c-0.782,0.781 -1.842,1.22 -2.947,1.22Zm66.667,0c-1.105,0 -2.165,-0.439 -2.946,-1.22c-0.782,-0.781 -1.221,-1.841 -1.221,-2.946l0,-29.167c0,-1.105 0.439,-2.165 1.221,-2.946c0.781,-0.782 1.841,-1.221 2.946,-1.221c1.105,0 2.165,0.439 2.946,1.221c0.782,0.781 1.221,1.841 1.221,2.946l-0,29.167c-0,1.105 -0.439,2.165 -1.221,2.946c-0.781,0.781 -1.841,1.22 -2.946,1.22Zm-79.167,-83.333l0,4.167c0,1.105 0.439,2.165 1.221,2.946c0.781,0.781 1.841,1.22 2.946,1.22l4.167,0l-0,-8.333l-8.334,0Zm79.167,8.333c-3.315,0 -6.495,-1.317 -8.839,-3.661c-2.344,-2.344 -3.661,-5.523 -3.661,-8.839l0,-8.333c-0,-3.315 1.317,-6.495 3.661,-8.839c2.344,-2.344 5.524,-3.661 8.839,-3.661c3.315,-0 6.495,1.317 8.839,3.661c2.344,2.344 3.661,5.524 3.661,8.839l-0,8.333c0,3.316 -1.317,6.495 -3.661,8.839c-2.344,2.344 -5.524,3.661 -8.839,3.661Zm-54.167,-8.333l-8.333,0l0,8.333l4.167,0c1.105,0 2.165,-0.439 2.946,-1.22c0.781,-0.781 1.22,-1.841 1.22,-2.946l0,-4.167Zm54.167,-33.333c-5.525,-0 -10.824,2.195 -14.731,6.102c-3.907,3.907 -6.102,9.206 -6.102,14.731c-0,2.744 -0,5.589 -0,8.333c-0,5.526 2.195,10.825 6.102,14.732c2.91,2.91 6.592,4.87 10.564,5.681l0,21.969c-1.741,0.616 -3.341,1.615 -4.672,2.946c-2.344,2.344 -3.661,5.524 -3.661,8.839c0,8.275 0,20.891 0,29.167c-0,3.315 1.317,6.494 3.661,8.838c2.344,2.345 5.524,3.662 8.839,3.662c3.315,-0 6.495,-1.317 8.839,-3.662c2.344,-2.344 3.661,-5.523 3.661,-8.838l-0,-29.167c0,-3.315 -1.317,-6.495 -3.661,-8.839c-1.331,-1.331 -2.931,-2.33 -4.672,-2.946l-0,-21.969c3.972,-0.811 7.654,-2.771 10.564,-5.681c3.907,-3.907 6.102,-9.206 6.102,-14.732l0,-8.333c0,-5.525 -2.195,-10.824 -6.102,-14.731c-3.907,-3.907 -9.206,-6.102 -14.731,-6.102Z"/></svg>