<?xml version="1.0" ?><!DOCTYPE svg  PUBLIC '-//W3C//DTD SVG 1.1//EN'  'http://www.w3.org/Graphics/SVG/1.1/DTD/svg11.dtd'><svg height="100%" style="fill-rule:evenodd;clip-rule:evenodd;stroke-linejoin:round;stroke-miterlimit:2;" version="1.1" viewBox="0 0 134 134" width="100%" xml:space="preserve" xmlns="http://www.w3.org/2000/svg" xmlns:serif="http://www.serif.com/" xmlns:xlink="http://www.w3.org/1999/xlink"><path d="M45.721,27.392l-0.925,22.89l-13.268,6.379c-1.443,0.694 -2.361,2.154 -2.361,3.756l-0,10.416l-4.167,0c-2.301,0 -4.167,1.866 -4.167,4.167l0.001,20.883l-0,0.002c0.009,0.753 0.218,1.459 0.577,2.065c0.177,0.3 0.392,0.579 0.643,0.83l15.446,15.446c0,-0 0,10.774 0,10.774c0,2.301 1.865,4.167 4.167,4.167l50,-0c2.301,-0 4.166,-1.866 4.166,-4.167l0,-10.774c0,-0 15.447,-15.446 15.447,-15.446c0.25,-0.251 0.465,-0.53 0.642,-0.83c0.359,-0.607 0.569,-1.312 0.578,-2.065l0,-20.885c0,-2.301 -1.865,-4.167 -4.167,-4.167l-4.166,0l-0,-10.416c-0,-1.602 -0.918,-3.062 -2.362,-3.756l-13.268,-6.379l-0.925,-22.89c0.216,-0.022 0.332,-0.035 0.332,-0.035c2.117,-0.227 3.723,-2.013 3.723,-4.143c-0,0 -0.003,-6.113 -0.007,-6.196c-0.021,-0.431 -0.112,-2.767 -2.204,-5.457c-2.356,-3.029 -8.066,-7.394 -22.789,-7.394c-14.724,-0 -20.434,4.365 -22.789,7.394c-2.093,2.69 -2.184,5.026 -2.205,5.457c-0.007,0.134 -0.006,6.196 -0.006,6.196c-0,2.13 1.605,3.916 3.722,4.143c0,0 0.116,0.013 0.332,0.035Zm52.553,72.608l-9.554,9.554c-0.781,0.781 -1.22,1.841 -1.22,2.946l0,8.333c-0,0 -41.667,0 -41.667,0c0,0 0,-8.333 0,-8.333c0,-1.105 -0.439,-2.165 -1.22,-2.946l-9.554,-9.554l63.215,-0Zm-69.107,-8.333l-0,-12.5l4.151,-0l10.79,-0c-0.001,-0 2.946,2.946 2.946,2.946c0.781,0.781 1.841,1.22 2.946,1.22l33.333,0c1.105,0 2.165,-0.439 2.947,-1.22l2.946,-2.946l14.941,-0l-0,12.5l-75,-0Zm57.342,-33.113c-2.856,3.6 -9.471,10.139 -19.842,10.139c-10.372,0 -16.987,-6.539 -19.843,-10.139l-9.324,4.483l-0,7.796l8.333,0c1.105,0 2.165,0.439 2.947,1.221c-0,-0 2.946,2.946 2.946,2.946c-0,-0 29.881,-0 29.881,0l2.947,-2.946c0.781,-0.782 1.841,-1.221 2.946,-1.221l8.333,0l0,-7.796l-9.324,-4.483Zm-6.546,-14.064c-3.276,-0.829 -9.385,-2.228 -13.296,-2.228c-3.911,-0 -10.02,1.399 -13.296,2.227c-0.192,4.762 -0.342,8.513 -0.341,8.514c1.556,2.151 6.1,7.357 13.637,7.357c7.539,-0 12.084,-5.21 13.64,-7.361l-0.344,-8.509Zm-16.273,9.677l5.953,-0c2.3,-0 4.167,-1.867 4.167,-4.167c-0,-2.3 -1.867,-4.167 -4.167,-4.167l-5.953,0c-2.299,0 -4.166,1.867 -4.166,4.167c-0,2.3 1.867,4.167 4.166,4.167Zm15.613,-25.998c-4.29,0.358 -9.265,0.7 -12.636,0.7c-3.372,0 -8.347,-0.342 -12.637,-0.7l-0.044,1.097l-0.267,6.597c3.881,-0.884 9.269,-1.934 12.948,-1.934c3.679,-0 9.067,1.05 12.947,1.934l-0.311,-7.694Zm4.03,-10.65l0,1.927c-4.525,0.434 -12.118,1.09 -16.666,1.09c-4.549,-0 -12.142,-0.656 -16.667,-1.09l0,-1.927c0.108,-0.224 0.903,-1.733 3.104,-2.794c2.707,-1.305 6.954,-2.225 13.563,-2.225c6.609,0 10.855,0.92 13.562,2.225c2.202,1.061 2.996,2.57 3.104,2.794Z"/></svg>