<?xml version="1.0" ?><!DOCTYPE svg  PUBLIC '-//W3C//DTD SVG 1.1//EN'  'http://www.w3.org/Graphics/SVG/1.1/DTD/svg11.dtd'><svg height="100%" style="fill-rule:evenodd;clip-rule:evenodd;stroke-linejoin:round;stroke-miterlimit:2;" version="1.1" viewBox="0 0 134 134" width="100%" xml:space="preserve" xmlns="http://www.w3.org/2000/svg" xmlns:serif="http://www.serif.com/" xmlns:xlink="http://www.w3.org/1999/xlink"><path d="M104.167,12.5l-33.334,0l0,-4.167c0,-2.299 -1.867,-4.166 -4.166,-4.166c-2.3,-0 -4.167,1.867 -4.167,4.166l0,4.167l-33.333,0l-0,-4.167c-0,-2.299 -1.867,-4.166 -4.167,-4.166c-2.3,-0 -4.167,1.867 -4.167,4.166l0,4.167l-4.089,0c-6.946,0 -12.577,5.631 -12.577,12.577l-0,91.513c-0,6.946 5.631,12.577 12.577,12.577l99.846,-0c6.946,-0 12.577,-5.631 12.577,-12.577l-0,-91.513c-0,-6.946 -5.631,-12.577 -12.577,-12.577l-4.09,0l0,-4.167c0,-2.299 -1.867,-4.166 -4.167,-4.166c-2.299,-0 -4.166,1.867 -4.166,4.166l-0,4.167Zm16.666,29.167l0,74.923c0,2.343 -1.9,4.243 -4.243,4.243c-0.001,0 -99.846,0 -99.846,0c-2.344,0 -4.244,-1.9 -4.244,-4.243l-0,-74.923l108.333,-0Zm-58.333,17.65c-11.843,1.937 -20.833,11.989 -20.833,24.016c-0,0 -0,20.834 -0,20.834c-0,2.301 1.865,4.166 4.166,4.166l41.667,0c2.301,0 4.167,-1.865 4.167,-4.166l-0,-20.834c-0,-12.027 -8.991,-22.079 -20.834,-24.016l0,-5.15c0,-2.3 -1.867,-4.167 -4.166,-4.167c-2.3,-0 -4.167,1.867 -4.167,4.167l0,5.15Zm-12.5,28.183l33.333,0l0,12.5c0,0 -33.333,0 -33.333,0l-0,-12.5Zm32.764,-8.333l-32.195,-0c1.912,-6.844 8.423,-11.854 16.098,-11.854c7.674,-0 14.185,5.01 16.097,11.854Zm29.736,-58.334l-0,4.167c0,2.3 -1.867,4.167 -4.167,4.167c-2.299,-0 -4.166,-1.867 -4.166,-4.167l-0,-4.167l-33.334,0l0,4.167c0,2.3 -1.867,4.167 -4.166,4.167c-2.3,-0 -4.167,-1.867 -4.167,-4.167l-0,-4.167l-33.333,0l-0,4.167c-0,2.3 -1.867,4.167 -4.167,4.167c-2.3,-0 -4.167,-1.867 -4.167,-4.167l0,-4.167l-4.089,0c-2.344,0 -4.244,1.9 -4.244,4.244l-0,8.256l108.333,0l0,-8.256c0,-2.344 -1.9,-4.244 -4.243,-4.244l-4.09,0Z"/></svg>