<?xml version="1.0" ?><!DOCTYPE svg  PUBLIC '-//W3C//DTD SVG 1.1//EN'  'http://www.w3.org/Graphics/SVG/1.1/DTD/svg11.dtd'><svg height="100%" style="fill-rule:evenodd;clip-rule:evenodd;stroke-linejoin:round;stroke-miterlimit:2;" version="1.1" viewBox="0 0 134 134" width="100%" xml:space="preserve" xmlns="http://www.w3.org/2000/svg" xmlns:serif="http://www.serif.com/" xmlns:xlink="http://www.w3.org/1999/xlink"><path d="M62.497,10.359c-14.046,1.868 -25.185,13.043 -27.04,27.141l-6.29,-0c-2.302,-0 -4.167,1.865 -4.167,4.167l0,16.666l-8.339,0c-2.301,0 -4.167,1.866 -4.167,4.167l0,62.5c0,2.301 1.866,4.167 4.167,4.167l100.006,-0c2.301,-0 4.166,-1.866 4.166,-4.167l0,-62.5c0,-2.301 -1.865,-4.167 -4.166,-4.167l-8.334,0l0,-16.666c0,-2.302 -1.865,-4.167 -4.166,-4.167l-6.296,-0c-1.855,-14.098 -12.994,-25.273 -27.04,-27.141l-0,-2.026c-0,-2.299 -1.867,-4.166 -4.167,-4.166c-2.3,-0 -4.167,1.867 -4.167,4.166l0,2.026Zm50.003,102.141l-25,0l-0,8.333l25,0l0,-8.333Zm-58.339,-20.833l0,29.166c0,0 25.006,0 25.006,0l-0,-29.167c-0,-6.903 -5.598,-12.499 -12.503,-12.499c-6.905,-0 -12.503,5.596 -12.503,12.5Zm-8.333,20.833l-25,0l-0,8.333l25,0l-0,-8.333Zm66.672,-45.833l-91.672,-0l-0,20.833l4.172,-0c2.3,0 4.167,1.867 4.167,4.167c-0,2.299 -1.867,4.166 -4.167,4.166l-4.172,0l-0,8.334l25,-0l-0,-12.5c-0,-11.506 9.328,-20.834 20.836,-20.834c11.507,0 20.836,9.328 20.836,20.834l-0,12.5l25,-0l0,-8.334l-4.172,0c-2.3,0 -4.167,-1.867 -4.167,-4.166c0,-2.3 1.867,-4.167 4.167,-4.167l4.172,-0l0,-20.833Zm-12.5,-20.834l-66.667,0c0,0 0,12.5 0,12.5l4.167,0l0,-4.166c-0,-2.3 1.867,-4.167 4.167,-4.167c2.299,-0 4.166,1.867 4.166,4.167l0,4.166l8.334,0l-0,-4.166c-0,-2.3 1.867,-4.167 4.166,-4.167c2.3,0 4.167,1.867 4.167,4.167l0,4.166l8.333,0l0,-4.166c0,-2.3 1.867,-4.167 4.167,-4.167c2.3,0 4.167,1.867 4.167,4.167l-0,4.166l8.333,0l0,-4.166c-0,-2.3 1.867,-4.167 4.167,-4.167c2.299,-0 4.166,1.867 4.166,4.167l0,4.166l4.167,0l0,-12.5Zm-10.562,-8.333c-1.957,-10.844 -11.412,-19.082 -22.774,-19.082c-11.362,-0 -20.817,8.238 -22.774,19.082l45.548,-0Z"/></svg>