<?xml version="1.0" ?><!DOCTYPE svg  PUBLIC '-//W3C//DTD SVG 1.1//EN'  'http://www.w3.org/Graphics/SVG/1.1/DTD/svg11.dtd'><svg height="100%" style="fill-rule:evenodd;clip-rule:evenodd;stroke-linejoin:round;stroke-miterlimit:2;" version="1.1" viewBox="0 0 134 134" width="100%" xml:space="preserve" xmlns="http://www.w3.org/2000/svg" xmlns:serif="http://www.serif.com/" xmlns:xlink="http://www.w3.org/1999/xlink"><path d="M58.333,29.167l-8.333,-0c-2.301,-0 -4.167,1.865 -4.167,4.166l0,16.667l-0.907,-0c-8.705,0 -16.534,5.3 -19.767,13.383c0,-0 -3.236,8.091 -3.236,8.091l-7.417,1.855c-6.076,1.519 -10.339,6.978 -10.339,13.242l-0,17.596c-0,2.301 1.865,4.166 4.166,4.166l12.648,0c1.013,7.064 7.094,12.5 14.436,12.5c7.341,0 13.423,-5.436 14.435,-12.5l33.629,0c1.013,7.064 7.094,12.5 14.436,12.5c7.341,0 13.423,-5.436 14.435,-12.5l12.648,0c2.301,0 4.167,-1.865 4.167,-4.166c-0,-0 -0,-27.443 -0,-41.667c-0,-6.904 -5.597,-12.5 -12.5,-12.5l-0,-16.667c-0,-2.301 -1.866,-4.166 -4.167,-4.166l-8.333,-0l-0,-12.5c-0,-2.302 -1.866,-4.167 -4.167,-4.167l-37.5,0c-2.301,0 -4.167,1.865 -4.167,4.167l0,12.5Zm39.584,70.833c3.449,-0 6.25,2.801 6.25,6.25c-0,3.449 -2.801,6.25 -6.25,6.25c-3.45,-0 -6.25,-2.801 -6.25,-6.25c-0,-3.449 2.8,-6.25 6.25,-6.25Zm-62.5,-0c3.449,-0 6.25,2.801 6.25,6.25c-0,3.449 -2.801,6.25 -6.25,6.25c-3.45,-0 -6.25,-2.801 -6.25,-6.25c-0,-3.449 2.8,-6.25 6.25,-6.25Zm75.678,0l9.738,0c0,0 0,-37.5 0,-37.5c0,-2.301 -1.865,-4.167 -4.166,-4.167c-0,0 -71.741,0 -71.741,0c-5.298,0 -10.062,3.226 -12.029,8.145l-4.028,10.069c-0.497,1.243 -1.56,2.171 -2.858,2.495c-0,0 -9.484,2.371 -9.484,2.371c-2.367,0.592 -4.027,2.718 -4.027,5.158c0,0 -0,13.429 -0,13.429l9.739,-0c2.342,-4.925 7.365,-8.333 13.178,-8.333c5.812,-0 10.836,3.408 13.178,8.333l36.143,0.001c2.343,-4.926 7.366,-8.334 13.179,-8.334c5.812,-0 10.836,3.408 13.178,8.333Zm-48.595,-33.333c-0,-2.302 -1.865,-4.167 -4.167,-4.167l-12.663,0c-4.145,0 -7.855,2.571 -9.311,6.453c-1.843,4.914 -4.844,12.917 -4.844,12.917c-0.48,1.28 -0.301,2.713 0.477,3.837c0.778,1.123 2.058,1.793 3.425,1.793l22.916,-0c2.302,0 4.167,-1.865 4.167,-4.167l-0,-16.666Zm50,-0c-0,-2.302 -1.865,-4.167 -4.167,-4.167l-37.5,-0c-2.301,-0 -4.166,1.865 -4.166,4.167l-0,16.666c-0,2.302 1.865,4.167 4.166,4.167l37.5,-0c2.302,0 4.167,-1.865 4.167,-4.167l-0,-16.666Zm-58.333,4.166l-0,8.334c-0,-0 -12.738,-0 -12.738,-0l2.733,-7.288c0.236,-0.629 0.837,-1.046 1.508,-1.046l8.497,0Zm50,0l-0,8.334c-0,-0 -29.167,-0 -29.167,-0c-0,-0 -0,-8.334 -0,-8.334l29.167,0Zm-41.667,-29.166c-2.301,-0 -4.167,-1.866 -4.167,-4.167l-4.166,-0c-0,-0 -0,12.5 -0,12.5l54.166,0l0,-12.5l-4.166,0l-0.001,0.054c-0,0.018 -0,0.036 -0.001,0.054c-0.057,2.251 -1.9,4.059 -4.165,4.059l-37.5,-0Zm4.167,-8.336l-0,-12.498l29.166,0l0,12.5l-29.166,0l-0,-0.002Z"/></svg>