<?xml version="1.0" ?><!DOCTYPE svg  PUBLIC '-//W3C//DTD SVG 1.1//EN'  'http://www.w3.org/Graphics/SVG/1.1/DTD/svg11.dtd'><svg height="100%" style="fill-rule:evenodd;clip-rule:evenodd;stroke-linejoin:round;stroke-miterlimit:2;" version="1.1" viewBox="0 0 134 134" width="100%" xml:space="preserve" xmlns="http://www.w3.org/2000/svg" xmlns:serif="http://www.serif.com/" xmlns:xlink="http://www.w3.org/1999/xlink"><path d="M21.823,92.487c-0.989,-1.005 -2.46,-1.48 -3.922,-1.138l-10.515,2.454c-1.122,0.262 -2.085,0.977 -2.661,1.974c-0.576,0.998 -0.713,2.19 -0.379,3.292l8.225,27.14c0.637,2.101 2.796,3.348 4.935,2.849l10.515,-2.455c1.122,-0.262 2.085,-0.976 2.661,-1.974c0.234,-0.404 0.395,-0.84 0.482,-1.289c6.733,-0.029 18.779,-0.182 28.117,-0.855c6.63,-0.477 12.014,-1.402 13.969,-2.458c4.872,-2.63 20.335,-13.392 24.851,-19.958c2.309,-3.358 2.221,-6.374 1.02,-8.294c-1.446,-2.309 -3.158,-3.668 -5.12,-4.368c-1.847,-0.658 -4.014,-0.739 -6.65,-0.047c-1.952,0.512 -4.305,1.544 -7.199,3.027c-0.515,-0.901 -1.248,-1.767 -2.238,-2.564c-0.717,-0.578 -2.069,-1.279 -3.987,-1.625c-2.913,-0.526 -7.634,-0.406 -12.6,1.906c-1.861,0.867 -3.433,0.244 -5.119,-0.428c-1.949,-0.778 -3.979,-1.753 -6.272,-2.442c-5.387,-1.619 -11.941,-0.356 -17.837,2.004c-3.961,1.585 -7.605,3.609 -10.276,5.249Zm-8.212,8.421l2.382,-0.557c0,0 5.804,19.148 5.804,19.148c-0,-0 -2.383,0.556 -2.383,0.556l-5.803,-19.147Zm15.534,14.105c5.95,-0.006 19.379,-0.108 29.537,-0.839c5.007,-0.361 9.133,-0.683 10.609,-1.48c3.802,-2.052 14.891,-9.587 20.3,-15.364c0.556,-0.594 1.148,-1.394 1.562,-1.987c-0.927,-0.413 -2.141,0.124 -3.873,0.843c-4.867,2.021 -11.836,6.358 -22.389,12.171c-1.732,0.954 -4.196,1.369 -6.828,1.257c-3.027,-0.128 -6.299,-0.879 -8.204,-1.422c-2.212,-0.63 -3.496,-2.937 -2.865,-5.149c0.63,-2.211 2.937,-3.495 5.149,-2.865c1.458,0.415 3.957,1.012 6.273,1.11c0.935,0.04 1.839,0.108 2.454,-0.23c3.63,-2 6.861,-3.824 9.747,-5.448c0.137,-0.097 0.28,-0.186 0.431,-0.267c0.409,-0.221 0.83,-0.561 1.159,-0.857c-1.496,-0.078 -4.702,-0.066 -7.362,1.173c-3.655,1.702 -6.859,1.434 -10.125,0.347c-2.237,-0.745 -4.513,-1.989 -7.182,-2.791c-3.742,-1.125 -8.248,0.121 -12.343,1.76c-4.262,1.705 -8.105,3.992 -10.452,5.515l4.402,14.523Zm91.688,-60.846l0,12.5c0,2.299 1.867,4.166 4.167,4.166c2.3,0 4.167,-1.867 4.167,-4.166l-0,-58.334c-0,-2.299 -1.867,-4.166 -4.167,-4.166c-2.3,-0 -4.167,1.867 -4.167,4.166l0,8.334l-12.5,-0c-2.301,-0 -4.166,1.865 -4.166,4.166c-0,0 -16.667,0 -16.667,0c0,0 0,-8.333 0,-8.333l4.167,-0c2.299,0 4.166,-1.867 4.166,-4.167c0,-2.299 -1.867,-4.166 -4.166,-4.166l-33.334,-0c-2.299,-0 -4.166,1.867 -4.166,4.166c-0,2.3 1.867,4.167 4.166,4.167l4.167,-0l0,8.333l-16.667,0c-4.42,0 -8.659,1.756 -11.785,4.882c-3.125,3.126 -4.881,7.365 -4.881,11.785l-0,16.667c-2.3,-0 -4.167,1.867 -4.167,4.166c0,2.3 1.867,4.167 4.167,4.167l-0,8.333c-0,2.302 1.865,4.167 4.166,4.167l16.667,-0c2.301,0 4.167,-1.865 4.167,-4.167l-0,-8.333c2.299,0 4.166,-1.867 4.166,-4.167c0,-2.299 -1.867,-4.166 -4.166,-4.166c-0,-0 -0,-4.167 -0,-4.167c-0,0 8.333,0 8.333,0c0.223,0 0.442,-0.018 0.656,-0.051c3.23,2.636 7.354,4.218 11.844,4.218c4.461,-0 8.561,-1.562 11.78,-4.167l17.387,-0c-0,2.301 1.865,4.167 4.166,4.167l12.5,-0Zm-75,8.333l0,4.167c0,-0 -8.333,-0 -8.333,-0c-0,-0 -0,-4.167 -0,-4.167l8.333,-0Zm0,-8.333l0,-8.334c0,-2.301 1.866,-4.166 4.167,-4.166l7.319,-0c-0.692,-1.956 -1.069,-4.06 -1.069,-6.25c0,-2.191 0.377,-4.295 1.069,-6.25l-11.486,-0c-2.21,-0 -4.329,0.878 -5.892,2.44c-1.563,1.563 -2.441,3.683 -2.441,5.893l-0,16.667l8.333,-0Zm75,-29.167l0,20.833c0,0 -8.333,0 -8.333,0c-0,0 0,-20.833 0,-20.833l8.333,0Zm-45.833,-0c5.749,-0 10.417,4.668 10.417,10.417c-0,5.749 -4.668,10.416 -10.417,10.416c-5.749,0 -10.417,-4.667 -10.417,-10.416c0,-5.749 4.668,-10.417 10.417,-10.417Zm29.167,4.167l-11.485,0.001l0.014,0.041c0.683,1.943 1.054,4.032 1.054,6.208c0,2.181 -0.373,4.276 -1.059,6.223l-0.009,0.027c-0,-0 11.485,-0 11.485,-0l-0,-12.5Zm-25,-12.035l-0,-4.632l-8.334,-0l0,4.632c1.34,-0.304 2.735,-0.465 4.167,-0.465c1.432,-0 2.827,0.161 4.167,0.465Z"/></svg>