<?xml version="1.0" ?><!DOCTYPE svg  PUBLIC '-//W3C//DTD SVG 1.1//EN'  'http://www.w3.org/Graphics/SVG/1.1/DTD/svg11.dtd'><svg height="100%" style="fill-rule:evenodd;clip-rule:evenodd;stroke-linejoin:round;stroke-miterlimit:2;" version="1.1" viewBox="0 0 134 134" width="100%" xml:space="preserve" xmlns="http://www.w3.org/2000/svg" xmlns:serif="http://www.serif.com/" xmlns:xlink="http://www.w3.org/1999/xlink"><path d="M37.5,68.258l-22.697,11.349c-0.806,0.403 -1.46,1.057 -1.863,1.863l-8.333,16.667c-0.29,0.578 -0.44,1.216 -0.44,1.863l-0,25c-0,2.301 1.865,4.167 4.166,4.167l116.667,-0c2.301,-0 4.167,-1.866 4.167,-4.167l-0,-25c-0,-0.647 -0.151,-1.285 -0.44,-1.863l-8.334,-16.667c-0.403,-0.806 -1.057,-1.46 -1.863,-1.863l-22.697,-11.349l0,-34.902c0.289,-0.03 0.444,-0.046 0.444,-0.046c2.117,-0.227 3.723,-2.014 3.723,-4.143l-0,-8.334c-0,0 0.921,-16.666 -33.333,-16.666c-34.255,-0 -33.334,16.666 -33.334,16.666l0,8.334c0,2.129 1.606,3.916 3.723,4.143c0,-0 0.155,0.016 0.444,0.046l-0,34.902Zm0.657,8.988l-18.385,9.193c0,-0 -7.272,14.545 -7.272,14.545c0,-0 0,19.849 -0,19.849l16.667,0l-0,-12.5c-0,-2.299 1.867,-4.166 4.166,-4.166c2.3,-0 4.167,1.867 4.167,4.166l0,12.5l58.333,0l0,-12.5c0,-2.299 1.867,-4.166 4.167,-4.166c2.3,-0 4.167,1.867 4.167,4.166l-0,12.5l16.666,0c0,0 0,-19.849 0,-19.849c0,-0 -7.272,-14.545 -7.272,-14.545l-18.385,-9.193c-0.028,0.044 -0.057,0.087 -0.087,0.13c0,0 -8.054,11.775 -24.256,13.567l0,11.14c0,2.3 -1.867,4.167 -4.166,4.167c-2.3,-0 -4.167,-1.867 -4.167,-4.167l0,-11.14c-16.202,-1.792 -24.256,-13.567 -24.256,-13.567c-0.03,-0.043 -0.059,-0.086 -0.087,-0.13Zm49.343,-3.7l0,-16.092c-5.07,-1.17 -15.045,-3.287 -20.833,-3.287c-5.789,-0 -15.763,2.117 -20.833,3.287c-0,8.644 0,16.093 0.001,16.094c2.182,2.514 9.146,9.289 20.832,9.289c11.686,0 18.651,-6.777 20.833,-9.291Zm-25,-6.879l8.333,-0c2.3,-0 4.167,-1.867 4.167,-4.167c0,-2.3 -1.867,-4.167 -4.167,-4.167l-8.333,0c-2.3,0 -4.167,1.867 -4.167,4.167c0,2.3 1.867,4.167 4.167,4.167Zm25,-17.734l0,-14.773c-6.535,0.585 -15.259,1.257 -20.833,1.257c-5.575,-0 -14.298,-0.672 -20.834,-1.257c0,3.242 0,8.819 0.001,14.773c5.813,-1.27 15.173,-3.1 20.833,-3.1c5.66,0 15.019,1.83 20.833,3.1Zm4.167,-27.928l-0,4.398c-6.053,0.595 -18.05,1.68 -25,1.68c-6.951,0 -18.947,-1.085 -25,-1.68l-0,-4.398c0.082,-0.233 1.231,-3.268 5.288,-5.225c3.936,-1.897 10.103,-3.28 19.712,-3.28c9.609,0 15.775,1.383 19.711,3.28c4.058,1.957 5.206,4.992 5.289,5.225Z"/></svg>